<svg viewBox="0 0 512 512" fill="none" xmlns="http://www.w3.org/2000/svg"><path fill-rule="evenodd" clip-rule="evenodd" d="M236.268 90.8245C219.406 104.507 208.909 126.641 205.808 162.653C205.05 171.457 197.298 177.979 188.494 177.221C179.69 176.463 173.168 168.711 173.926 159.907C177.438 119.119 189.981 87.1735 216.106 65.9757C241.788 45.1362 277.682 37.1201 322.347 37.1201H325.12C374.382 37.1201 413.034 46.8863 438.967 72.8197C464.901 98.7532 474.667 137.404 474.667 186.667V325.76C474.667 375.023 464.901 413.674 438.967 439.607C413.034 465.541 374.382 475.307 325.12 475.307H322.347C278.006 475.307 242.329 467.399 216.698 446.894C190.606 426.02 177.897 394.54 174.15 354.339C173.329 345.54 179.797 337.743 188.595 336.923C197.394 336.103 205.191 342.57 206.011 351.369C209.304 386.687 219.848 408.434 236.689 421.906C253.992 435.749 280.927 443.307 322.347 443.307H325.12C371.218 443.307 399.34 433.98 416.34 416.98C433.34 399.98 442.667 371.858 442.667 325.76V186.667C442.667 140.569 433.34 112.447 416.34 95.4472C399.34 78.4473 371.218 69.1201 325.12 69.1201H322.347C280.612 69.1201 253.572 76.784 236.268 90.8245Z" fill="black"/><path fill-rule="evenodd" clip-rule="evenodd" d="M26.6667 256C26.6667 247.163 33.8302 240 42.6667 240H317.44C326.277 240 333.44 247.163 333.44 256C333.44 264.837 326.277 272 317.44 272H42.6667C33.8302 272 26.6667 264.837 26.6667 256Z" fill="black"/><path fill-rule="evenodd" clip-rule="evenodd" d="M258.553 173.218C264.801 166.969 274.932 166.969 281.18 173.218L352.647 244.684C355.648 247.685 357.333 251.754 357.333 255.998C357.333 260.241 355.648 264.311 352.647 267.312L281.18 338.778C274.932 345.027 264.801 345.027 258.553 338.778C252.305 332.53 252.305 322.399 258.553 316.151L318.706 255.998L258.553 195.845C252.305 189.597 252.305 179.466 258.553 173.218Z" fill="black"/></svg>