<svg xmlns="http://www.w3.org/2000/svg" width="16" height="14" viewBox="0 0 16 14" fill="none">
  <path d="M1.63214 9.55017C1.63214 9.90582 1.69669 10.1464 1.82579 10.2719C1.96249 10.3905 2.17892 10.4498 2.4751 10.4498C2.79406 10.4498 3.04087 10.394 3.21554 10.2824C3.3978 10.1638 3.55728 9.99648 3.69397 9.7803L4.3091 8.77612C4.46858 8.51113 4.65844 8.31238 4.87867 8.17989C5.09891 8.04042 5.36471 7.97068 5.67607 7.97068C6.2912 7.97068 6.76584 8.21127 7.09999 8.69244C7.43414 9.17361 7.60121 9.81865 7.60121 10.6276C7.60121 10.7252 7.59362 10.8786 7.57843 11.0878L6.86077 12.1548C6.24564 12.1548 5.66468 12.0955 5.11789 11.9769C4.5787 11.8514 4.13444 11.6527 3.78511 11.3807C3.61803 11.5969 3.42817 11.7608 3.21554 11.8723C3.01049 11.9839 2.7333 12.0432 2.38397 12.0502C1.16129 12.0571 0.542362 11.4086 0.527173 10.1046V5.70088L1.63214 6.22389V9.55017ZM4.54832 10.2405C4.7078 10.373 4.9774 10.4916 5.35711 10.5962C5.73682 10.6938 6.13172 10.7496 6.54181 10.7636C6.54941 10.3242 6.46967 9.9651 6.3026 9.68616C6.14312 9.40024 5.91149 9.25729 5.60772 9.25729C5.51659 9.25729 5.34952 9.28169 5.1065 9.33051L4.54832 10.2405Z" fill="#242B3D"/>
  <path d="M9.60115 13.9958C9.34295 14.0237 8.81515 13.9121 8.01776 13.6611L7.72158 12.6883L7.78993 12.5837C8.28355 12.6186 8.67086 12.636 8.95185 12.636C9.74924 12.636 10.4327 12.228 11.0023 11.4121H9.63533C9.17208 11.4121 8.81515 11.3145 8.56454 11.1193C8.31393 10.924 8.18862 10.6276 8.18862 10.2301L8.20002 9.9268C8.42025 8.26014 9.05437 7.42681 10.1024 7.42681C10.4821 7.42681 10.7935 7.50003 11.0365 7.64647C11.2795 7.79291 11.4883 7.98817 11.663 8.23224C11.8756 8.54605 12.0351 8.96794 12.1414 9.49793C12.1718 9.63042 12.1946 9.77338 12.2098 9.9268H12.6768C12.7604 9.9268 12.8287 10.0035 12.8819 10.1569C12.9426 10.3103 12.973 10.4986 12.973 10.7218C12.973 10.9449 12.9426 11.1367 12.8819 11.2971C12.8287 11.4505 12.7604 11.5272 12.6768 11.5272H12.13C12.0085 11.9735 11.8111 12.3815 11.5377 12.7511C11.2719 13.1206 10.9643 13.4135 10.615 13.6297C10.2732 13.8459 9.9353 13.9679 9.60115 13.9958ZM10.2049 10.0732C10.615 10.0732 10.9112 10.0698 11.0934 10.0628C11.0479 9.79779 10.9871 9.54674 10.9112 9.30964C10.8428 9.07255 10.7707 8.88426 10.6947 8.74479C10.4517 8.68203 10.2391 8.65065 10.0568 8.65065C9.7986 8.65065 9.60495 8.7169 9.47585 8.84939C9.35434 8.97492 9.2708 9.23294 9.22524 9.62345L9.21385 9.74897C9.21385 9.88844 9.25562 9.9791 9.33915 10.0209C9.43028 10.0558 9.58976 10.0732 9.81759 10.0732H10.2049Z" fill="#242B3D"/>
  <path d="M12.6737 11.5272C12.5902 11.5272 12.5218 11.4505 12.4687 11.2971C12.4079 11.1367 12.3775 10.9449 12.3775 10.7218C12.3775 10.5056 12.4079 10.3208 12.4687 10.1674C12.5218 10.007 12.5902 9.9268 12.6737 9.9268C13.585 9.9268 14.2799 9.82219 14.7583 9.61299L14.4622 7.91844L15.6013 7.25944L15.7266 7.33266L15.8177 7.93936C15.9392 8.70644 16 9.21899 16 9.47701C16 10.1744 15.7608 10.6799 15.2823 10.9937C14.971 11.196 14.5951 11.3354 14.1546 11.4121C13.7217 11.4889 13.2281 11.5272 12.6737 11.5272ZM14.1204 6.08791V5.931L14.5419 5.09419L15.6127 5.55444V5.70088L15.1912 6.52723L14.1204 6.08791ZM12.4914 6.17159V6.01468L12.9129 5.17787L13.9837 5.63812V5.78456L13.5622 6.61091L12.4914 6.17159Z" fill="#242B3D"/>
  <path d="M2.51753 5.55432C1.73532 5.55432 1.12019 5.39742 0.672128 5.08362C0.224068 4.76981 3.77201e-05 4.27469 3.77201e-05 3.59827C3.77201e-05 3.27749 0.041806 2.90789 0.125343 2.48948C0.216474 2.07108 0.334184 1.59339 0.478475 1.05644L1.29865 1.10874L1.37839 1.2238L1.29865 1.58991C1.12399 2.3012 1.03665 2.77888 1.03665 3.02296C1.03665 3.38558 1.17335 3.62965 1.44674 3.75517C1.72773 3.88767 2.1644 3.95391 2.75675 3.95391C3.36429 3.95391 3.90728 3.89464 4.38571 3.77609C4.87175 3.65754 5.28563 3.51458 5.62737 3.34722C5.52865 2.64987 5.36537 1.72938 5.13754 0.585728L6.13998 -4.39446e-05L6.29946 0.0627174L6.35642 0.386984C6.49312 1.14012 6.59184 1.73635 6.6526 2.17568C6.72094 2.60803 6.75512 2.94973 6.75512 3.20078C6.75512 3.77958 6.56906 4.22239 6.19694 4.52922C5.84001 4.83606 5.34639 5.08362 4.71606 5.2719C4.08574 5.46018 3.3529 5.55432 2.51753 5.55432ZM2.32388 1.47484V1.30748L2.79092 0.386984L3.96423 0.899534V1.05644L3.49719 1.96647L2.32388 1.47484Z" fill="#242B3D"/>
</svg>