        <svg
          xmlns="http://www.w3.org/2000/svg"
          width="190"
          height="44"
          viewBox="0 0 190 44"
          fill="none"
        >
          <path
            d="M21.7923 33.2164V35.6257H6.86326V33.2164H21.7923ZM7.73738 8.37427V35.6257H5V8.37427H7.73738Z"
            fill="#242B3D"
          ></path>
          <path
            d="M44.4045 33.2164V35.6257H28.2562V33.2164H44.4045ZM29.1304 8.37427V35.6257H26.393V8.37427H29.1304ZM42.4032 20.3041V22.6901H28.2562V20.3041H42.4032ZM44.3355 8.37427V10.807H28.2562V8.37427H44.3355Z"
            fill="#242B3D"
          ></path>
          <path
            d="M59.4256 22.7368H51.3514L51.3054 20.4678H58.2294C59.6403 20.4678 60.8288 20.2885 61.7949 19.9298C62.7764 19.5712 63.5201 19.0331 64.0262 18.3158C64.5476 17.5984 64.8083 16.7173 64.8083 15.6725C64.8083 14.5653 64.5476 13.653 64.0262 12.9357C63.5048 12.2183 62.7304 11.6881 61.7029 11.345C60.6754 10.9864 59.4026 10.807 57.8843 10.807H52.1335V35.6257H49.3962V8.37427H57.8843C59.3719 8.37427 60.7061 8.52242 61.8869 8.81871C63.0831 9.09942 64.1029 9.53606 64.9463 10.1287C65.7898 10.7212 66.4339 11.4698 66.8786 12.3743C67.3233 13.2788 67.5457 14.3548 67.5457 15.6023C67.5457 16.7251 67.285 17.7388 66.7636 18.6433C66.2422 19.5478 65.4907 20.2807 64.5093 20.8421C63.5431 21.4035 62.3623 21.7466 60.9668 21.8713L59.4256 22.7368ZM59.2185 35.6257H50.5233L51.8345 33.2164H59.2185C60.6141 33.2164 61.8026 33.0136 62.784 32.6082C63.7655 32.1871 64.5169 31.5867 65.0383 30.807C65.5597 30.0117 65.8204 29.0682 65.8204 27.9766C65.8204 26.9942 65.5904 26.1053 65.1304 25.3099C64.6703 24.5146 63.9725 23.8908 63.0371 23.4386C62.1016 22.9708 60.8978 22.7368 59.4256 22.7368H54.3419L54.3649 20.4678H61.4958L62.0019 21.3099C63.3514 21.4035 64.5169 21.77 65.4984 22.4094C66.4799 23.0331 67.2313 23.8363 67.7527 24.8187C68.2895 25.7856 68.5578 26.8304 68.5578 27.9532C68.5578 29.2164 68.3355 30.3314 67.8907 31.2982C67.446 32.2495 66.8096 33.0448 65.9815 33.6842C65.1687 34.3236 64.1872 34.807 63.0371 35.1345C61.9022 35.462 60.6294 35.6257 59.2185 35.6257Z"
            fill="#242B3D"
          ></path>
          <path
            d="M83.5559 11.6257L74.1706 35.6257H71.3182L82.2217 8.37427H84.177L83.5559 11.6257ZM92.8492 35.6257L83.4869 11.5789L82.8888 8.37427H84.8441L95.6786 35.6257H92.8492ZM91.0549 25.9649V28.3509H75.8958V25.9649H91.0549Z"
            fill="#242B3D"
          ></path>
          <path
            d="M116.013 28.8655C116.013 28.1637 115.883 27.5322 115.622 26.9708C115.377 26.4094 114.971 25.9025 114.403 25.4503C113.836 24.9981 113.069 24.5848 112.103 24.2105C111.137 23.8207 109.941 23.4542 108.514 23.1111C107.042 22.7368 105.708 22.3158 104.512 21.848C103.331 21.3801 102.319 20.8421 101.475 20.2339C100.647 19.6101 100.011 18.885 99.5661 18.0585C99.1214 17.2164 98.899 16.2417 98.899 15.1345C98.899 14.0585 99.1367 13.0838 99.6121 12.2105C100.088 11.3372 100.762 10.5887 101.636 9.96491C102.511 9.32554 103.538 8.84211 104.719 8.51462C105.915 8.17154 107.226 8 108.652 8C110.677 8 112.433 8.35867 113.92 9.07602C115.408 9.79337 116.558 10.7758 117.371 12.0234C118.183 13.2554 118.59 14.6433 118.59 16.1871H115.852C115.852 15.0799 115.569 14.0897 115.001 13.2164C114.434 12.3431 113.613 11.6569 112.54 11.1579C111.482 10.6589 110.178 10.4094 108.629 10.4094C107.111 10.4094 105.831 10.6199 104.788 11.0409C103.745 11.462 102.955 12.0312 102.419 12.7485C101.897 13.4503 101.636 14.23 101.636 15.0877C101.636 15.7115 101.759 16.2885 102.004 16.8187C102.265 17.3333 102.687 17.809 103.27 18.2456C103.868 18.6823 104.658 19.0955 105.639 19.4854C106.636 19.8752 107.863 20.2495 109.319 20.6082C110.776 20.9669 112.088 21.3879 113.253 21.8713C114.419 22.3548 115.408 22.924 116.22 23.5789C117.049 24.2183 117.677 24.9747 118.107 25.848C118.551 26.7057 118.774 27.6959 118.774 28.8187C118.774 29.9415 118.528 30.9474 118.038 31.8363C117.547 32.7251 116.849 33.4815 115.944 34.1053C115.055 34.7134 113.997 35.1813 112.77 35.5088C111.558 35.8363 110.24 36 108.813 36C107.525 36 106.237 35.8441 104.949 35.5322C103.676 35.2203 102.511 34.729 101.452 34.0585C100.394 33.3879 99.5508 32.5302 98.922 31.4854C98.2933 30.425 97.9789 29.1618 97.9789 27.6959H100.716C100.716 28.8031 100.946 29.7388 101.406 30.5029C101.882 31.2515 102.511 31.8596 103.293 32.3275C104.09 32.7797 104.964 33.115 105.915 33.3333C106.866 33.5361 107.832 33.6374 108.813 33.6374C110.286 33.6374 111.558 33.4347 112.632 33.0292C113.705 32.6238 114.534 32.0624 115.116 31.345C115.714 30.6277 116.013 29.8012 116.013 28.8655Z"
            fill="#242B3D"
          ></path>
          <path
            d="M127.193 8.37427V35.6257H124.456V8.37427H127.193Z"
            fill="#242B3D"
          ></path>
          <path
            d="M156.43 8.37427V35.6257H153.693L137.567 12.7953V35.6257H134.83V8.37427H137.567L153.693 31.1579V8.37427H156.43Z"
            fill="#242B3D"
          ></path>
          <path
            d="M185 20.6784V23.345C185 25.2788 184.732 27.0253 184.195 28.5848C183.673 30.1442 182.914 31.4776 181.918 32.5848C180.936 33.692 179.748 34.5419 178.352 35.1345C176.972 35.7115 175.423 36 173.705 36C172.019 36 170.477 35.7115 169.082 35.1345C167.702 34.5419 166.513 33.692 165.516 32.5848C164.519 31.4776 163.745 30.1442 163.193 28.5848C162.656 27.0253 162.388 25.2788 162.388 23.345V20.6784C162.388 18.7446 162.656 16.9981 163.193 15.4386C163.73 13.8791 164.489 12.5458 165.47 11.4386C166.467 10.3158 167.656 9.46589 169.036 8.88889C170.431 8.2963 171.98 8 173.682 8C175.4 8 176.949 8.2963 178.329 8.88889C179.725 9.46589 180.913 10.3158 181.895 11.4386C182.891 12.5458 183.658 13.8791 184.195 15.4386C184.732 16.9981 185 18.7446 185 20.6784ZM182.286 23.345V20.6316C182.286 19.0565 182.094 17.6452 181.711 16.3977C181.327 15.1501 180.767 14.0819 180.031 13.193C179.295 12.3041 178.39 11.6257 177.317 11.1579C176.259 10.6901 175.047 10.4561 173.682 10.4561C172.348 10.4561 171.152 10.6901 170.094 11.1579C169.036 11.6257 168.139 12.3041 167.403 13.193C166.666 14.0819 166.099 15.1501 165.7 16.3977C165.317 17.6452 165.125 19.0565 165.125 20.6316V23.345C165.125 24.9201 165.317 26.3392 165.7 27.6023C166.099 28.8655 166.666 29.9415 167.403 30.8304C168.154 31.7193 169.059 32.3977 170.117 32.8655C171.19 33.3333 172.387 33.5673 173.705 33.5673C175.086 33.5673 176.305 33.3333 177.363 32.8655C178.421 32.3977 179.318 31.7193 180.054 30.8304C180.79 29.9415 181.342 28.8655 181.711 27.6023C182.094 26.3392 182.286 24.9201 182.286 23.345Z"
            fill="#242B3D"
          ></path>
          <line
            x1="8.74228e-08"
            y1="43"
            x2="190"
            y2="43"
            stroke="#242B3D"
            stroke-width="2"
          ></line>
          <line
            x1="8.74228e-08"
            y1="1"
            x2="190"
            y2="1.00002"
            stroke="#242B3D"
            stroke-width="2"
          ></line>
        </svg>